<?xml version="1.0" encoding="utf-8"?>
<!-- Generator: Adobe Illustrator 16.0.0, SVG Export Plug-In . SVG Version: 6.00 Build 0)  -->
<!DOCTYPE svg PUBLIC "-//W3C//DTD SVG 1.1//EN" "http://www.w3.org/Graphics/SVG/1.1/DTD/svg11.dtd" [
	<!ENTITY ns_extend "http://ns.adobe.com/Extensibility/1.0/">
	<!ENTITY ns_ai "http://ns.adobe.com/AdobeIllustrator/10.0/">
	<!ENTITY ns_graphs "http://ns.adobe.com/Graphs/1.0/">
	<!ENTITY ns_vars "http://ns.adobe.com/Variables/1.0/">
	<!ENTITY ns_imrep "http://ns.adobe.com/ImageReplacement/1.0/">
	<!ENTITY ns_sfw "http://ns.adobe.com/SaveForWeb/1.0/">
	<!ENTITY ns_custom "http://ns.adobe.com/GenericCustomNamespace/1.0/">
	<!ENTITY ns_adobe_xpath "http://ns.adobe.com/XPath/1.0/">
]>
<svg version="1.1" id="Шар_1" xmlns:x="&ns_extend;" xmlns:i="&ns_ai;" xmlns:graph="&ns_graphs;"
	 xmlns="http://www.w3.org/2000/svg" xmlns:xlink="http://www.w3.org/1999/xlink" x="0px" y="0px" width="401px" height="400px"
	 viewBox="0 0 401 400" enable-background="new 0 0 401 400" xml:space="preserve">
<metadata>
	<sfw  xmlns="&ns_sfw;">
		<slices></slices>
		<sliceSourceBounds  width="401" height="400" bottomLeftOrigin="true" y="0" x="0"></sliceSourceBounds>
	</sfw>
</metadata>
<g>
	<defs>
		<rect id="SVGID_1_" width="401" height="400"/>
	</defs>
	<clipPath id="SVGID_2_">
		<use xlink:href="#SVGID_1_"  overflow="visible"/>
	</clipPath>
	<g clip-path="url(#SVGID_2_)">
		<defs>
			<rect id="SVGID_3_" width="401" height="400"/>
		</defs>
		<clipPath id="SVGID_4_">
			<use xlink:href="#SVGID_3_"  overflow="visible"/>
		</clipPath>
		<g opacity="0.1" clip-path="url(#SVGID_4_)">
			<g>
				<defs>
					<rect id="SVGID_5_" x="105.889" y="299.62" width="189.107" height="9.043"/>
				</defs>
				<clipPath id="SVGID_6_">
					<use xlink:href="#SVGID_5_"  overflow="visible"/>
				</clipPath>
				<path clip-path="url(#SVGID_6_)" d="M294.996,304.142c0,2.497-66.799,4.521-94.554,4.521c-52.22,0-94.553-2.024-94.553-4.521
					s42.333-4.521,94.553-4.521C252.663,299.621,294.996,301.645,294.996,304.142"/>
			</g>
		</g>
	</g>
	<g clip-path="url(#SVGID_2_)">
		<defs>
			<path id="SVGID_7_" d="M168.447,282.895l-1.004,12.404c0,0,0.363,3.024-2.777,3.751c-2.621,0.605-7.512,1.632-9.059,1.955
				c-0.48,0.146-0.48,0.51-0.48,0.51v1.647h0.241h90.803h0.241v-1.588c0,0,0-0.452-0.717-0.618
				c-1.752-0.403-6.324-1.328-8.823-1.906c-3.138-0.727-2.777-3.751-2.777-3.751l-1.003-12.404H168.447z"/>
		</defs>
		<clipPath id="SVGID_8_">
			<use xlink:href="#SVGID_7_"  overflow="visible"/>
		</clipPath>
		
			<linearGradient id="SVGID_9_" gradientUnits="userSpaceOnUse" x1="0" y1="400" x2="1" y2="400" gradientTransform="matrix(91.2846 0 0 -91.2846 155.125 36806.8594)">
			<stop  offset="0" style="stop-color:#B1B3B6"/>
			<stop  offset="1" style="stop-color:#FFFFFF"/>
		</linearGradient>
		<rect x="155.127" y="282.895" clip-path="url(#SVGID_8_)" fill="url(#SVGID_9_)" width="91.285" height="20.268"/>
	</g>
	<g clip-path="url(#SVGID_2_)">
		<defs>
			<polygon id="SVGID_10_" points="169.254,272.922 168.447,282.895 233.092,282.895 232.285,272.922 			"/>
		</defs>
		<clipPath id="SVGID_11_">
			<use xlink:href="#SVGID_10_"  overflow="visible"/>
		</clipPath>
		
			<linearGradient id="SVGID_12_" gradientUnits="userSpaceOnUse" x1="0" y1="400" x2="1" y2="400" gradientTransform="matrix(91.2846 0 0 -91.2846 155.125 36791.7969)">
			<stop  offset="0" style="stop-color:#B1B3B6"/>
			<stop  offset="1" style="stop-color:#FFFFFF"/>
		</linearGradient>
		<rect x="168.447" y="272.922" clip-path="url(#SVGID_11_)" fill="url(#SVGID_12_)" width="64.645" height="9.973"/>
	</g>
	<g clip-path="url(#SVGID_2_)">
		<defs>
			<polygon id="SVGID_13_" points="169.254,272.922 168.447,282.895 233.092,282.895 232.285,272.922 			"/>
		</defs>
		<clipPath id="SVGID_14_">
			<use xlink:href="#SVGID_13_"  overflow="visible"/>
		</clipPath>
		
			<linearGradient id="SVGID_15_" gradientUnits="userSpaceOnUse" x1="0" y1="400" x2="1" y2="400" gradientTransform="matrix(113.6383 0 0 -113.6383 169.4375 45733.2656)">
			<stop  offset="0" style="stop-color:#B1B3B6"/>
			<stop  offset="1" style="stop-color:#FFFFFF"/>
		</linearGradient>
		<rect x="168.447" y="272.922" clip-path="url(#SVGID_14_)" fill="url(#SVGID_15_)" width="64.645" height="9.973"/>
	</g>
	<g clip-path="url(#SVGID_2_)">
		<defs>
			<rect id="SVGID_16_" x="155.127" y="302.238" width="91.285" height="2.762"/>
		</defs>
		<clipPath id="SVGID_17_">
			<use xlink:href="#SVGID_16_"  overflow="visible"/>
		</clipPath>
		
			<linearGradient id="SVGID_18_" gradientUnits="userSpaceOnUse" x1="0" y1="400" x2="1" y2="400" gradientTransform="matrix(79.5283 -0.3458 -0.3458 -79.5283 330.3726 32114.998)">
			<stop  offset="0" style="stop-color:#B1B3B6"/>
			<stop  offset="1" style="stop-color:#FFFFFF"/>
		</linearGradient>
		<polygon clip-path="url(#SVGID_17_)" fill="url(#SVGID_18_)" points="155.115,302.238 246.41,301.841 246.424,305 
			155.129,305.396 		"/>
	</g>
	<g clip-path="url(#SVGID_2_)">
		<defs>
			<rect id="SVGID_19_" width="401" height="400"/>
		</defs>
		<clipPath id="SVGID_20_">
			<use xlink:href="#SVGID_19_"  overflow="visible"/>
		</clipPath>
		<path clip-path="url(#SVGID_20_)" d="M324.842,245.592H76.158V101.333c0-3.497,2.835-6.333,6.333-6.333h236.018
			c3.498,0,6.333,2.836,6.333,6.333V245.592z"/>
	</g>
	<g clip-path="url(#SVGID_2_)">
		<defs>
			<path id="SVGID_21_" d="M76.158,245.592v21.299c0,3.496,2.835,6.332,6.333,6.332h236.018c3.498,0,6.332-2.836,6.332-6.332
				v-21.299H76.158z"/>
		</defs>
		<clipPath id="SVGID_22_">
			<use xlink:href="#SVGID_21_"  overflow="visible"/>
		</clipPath>
		
			<linearGradient id="SVGID_23_" gradientUnits="userSpaceOnUse" x1="0" y1="400" x2="1" y2="400" gradientTransform="matrix(248.6842 0 0 -248.6842 76.125 99733.0547)">
			<stop  offset="0" style="stop-color:#B1B3B6"/>
			<stop  offset="1" style="stop-color:#FFFFFF"/>
		</linearGradient>
		<rect x="76.158" y="245.592" clip-path="url(#SVGID_22_)" fill="url(#SVGID_23_)" width="248.683" height="27.631"/>
	</g>
	<g clip-path="url(#SVGID_2_)">
		<defs>
			<path id="SVGID_24_" d="M86.044,102.841c-1.442,0-2.611,1.171-2.611,2.617v130.298c0,1.445,1.169,2.618,2.611,2.618h229.45
				c1.443,0,2.613-1.173,2.613-2.618V105.458c0-1.446-1.17-2.617-2.613-2.617H86.044z"/>
		</defs>
		<clipPath id="SVGID_25_">
			<use xlink:href="#SVGID_24_"  overflow="visible"/>
		</clipPath>
		
			<linearGradient id="SVGID_26_" gradientUnits="userSpaceOnUse" x1="0" y1="400" x2="1" y2="400" gradientTransform="matrix(234.6745 0 0 -234.6745 83.375 94040.4297)">
			<stop  offset="0" style="stop-color:#414246"/>
			<stop  offset="1" style="stop-color:#292B2E"/>
		</linearGradient>
		<rect x="83.433" y="102.841" clip-path="url(#SVGID_25_)" fill="url(#SVGID_26_)" width="234.674" height="135.533"/>
	</g>
	
		<rect x="112.836" y="119.832" clip-path="url(#SVGID_2_)" fill-rule="evenodd" clip-rule="evenodd" fill="#747A87" width="175.867" height="10.017"/>
	
		<rect x="112.836" y="129.849" clip-path="url(#SVGID_2_)" fill-rule="evenodd" clip-rule="evenodd" fill="#494C55" width="175.867" height="108.524"/>
	<rect x="129.112" y="196.867" clip-path="url(#SVGID_2_)" fill="#555965" width="42.256" height="3.455"/>
	<rect x="129.106" y="205.157" clip-path="url(#SVGID_2_)" fill="#555965" width="42.255" height="3.455"/>
	<rect x="129.106" y="213.447" clip-path="url(#SVGID_2_)" fill="#555965" width="42.255" height="3.453"/>
	<rect x="129.106" y="221.737" clip-path="url(#SVGID_2_)" fill="#555965" width="42.255" height="3.452"/>
	<rect x="178.849" y="196.867" clip-path="url(#SVGID_2_)" fill="#555965" width="42.256" height="3.455"/>
	<rect x="178.843" y="205.157" clip-path="url(#SVGID_2_)" fill="#555965" width="42.256" height="3.455"/>
	<rect x="178.843" y="213.447" clip-path="url(#SVGID_2_)" fill="#555965" width="42.256" height="3.453"/>
	<rect x="178.843" y="221.737" clip-path="url(#SVGID_2_)" fill="#555965" width="42.256" height="3.452"/>
	<rect x="228.586" y="196.867" clip-path="url(#SVGID_2_)" fill="#555965" width="42.254" height="3.455"/>
	<rect x="228.579" y="205.157" clip-path="url(#SVGID_2_)" fill="#555965" width="42.256" height="3.455"/>
	<rect x="228.579" y="213.447" clip-path="url(#SVGID_2_)" fill="#555965" width="42.256" height="3.453"/>
	<rect x="228.579" y="221.737" clip-path="url(#SVGID_2_)" fill="#555965" width="42.256" height="3.452"/>
	<rect x="129.073" y="145.329" clip-path="url(#SVGID_2_)" fill="#555965" width="78.747" height="42.829"/>
	<rect x="219.716" y="145.251" clip-path="url(#SVGID_2_)" fill="#57B8DD" width="51.119" height="79.938"/>
	<g clip-path="url(#SVGID_2_)">
		<defs>
			<rect id="SVGID_27_" width="401" height="400"/>
		</defs>
		<clipPath id="SVGID_28_">
			<use xlink:href="#SVGID_27_"  overflow="visible"/>
		</clipPath>
		<g opacity="0.07" clip-path="url(#SVGID_28_)">
			<g>
				<defs>
					<rect id="SVGID_29_" x="165.961" y="102.84" width="152.146" height="135.533"/>
				</defs>
				<clipPath id="SVGID_30_">
					<use xlink:href="#SVGID_29_"  overflow="visible"/>
				</clipPath>
				<g clip-path="url(#SVGID_30_)">
					<defs>
						<path id="SVGID_31_" d="M249.714,102.841h65.78c1.443,0,2.612,1.171,2.612,2.617v130.298c0,1.445-1.169,2.617-2.612,2.617
							h-4.899H165.961"/>
					</defs>
					<clipPath id="SVGID_32_">
						<use xlink:href="#SVGID_31_"  overflow="visible"/>
					</clipPath>
					
						<linearGradient id="SVGID_33_" gradientUnits="userSpaceOnUse" x1="0" y1="400.0215" x2="1" y2="400.0215" gradientTransform="matrix(239.0132 -31.7763 -31.7763 -239.0132 12848.4023 95795.0156)">
						<stop  offset="0" style="stop-color:#FFFFFF"/>
						<stop  offset="0.005" style="stop-color:#FFFFFF"/>
						<stop  offset="1" style="stop-color:#505050"/>
					</linearGradient>
					<polygon clip-path="url(#SVGID_32_)" fill="url(#SVGID_33_)" points="148.255,105.195 315.464,82.965 335.812,236.02 
						168.604,258.249 					"/>
				</g>
			</g>
		</g>
	</g>
	<polygon clip-path="url(#SVGID_2_)" fill="#FFFFFF" points="288.616,207.165 291.5,197.749 300.929,194.852 283.788,190.024 	"/>
	<g clip-path="url(#SVGID_2_)">
		<defs>
			<rect id="SVGID_34_" width="401" height="400"/>
		</defs>
		<clipPath id="SVGID_35_">
			<use xlink:href="#SVGID_34_"  overflow="visible"/>
		</clipPath>
		<path clip-path="url(#SVGID_35_)" fill="#2195D2" d="M266.436,156.024c0,3.9-3.162,7.062-7.063,7.062s-7.063-3.162-7.063-7.062
			s3.162-7.062,7.063-7.062S266.436,152.125,266.436,156.024"/>
		<path clip-path="url(#SVGID_35_)" fill="#FFFFFF" d="M257.021,158.376L257.021,158.376c-0.325-0.324-0.325-0.852,0-1.176
			l3.527-3.527c0.324-0.325,0.851-0.325,1.176,0c0.324,0.324,0.324,0.85,0,1.176l-3.527,3.527
			C257.872,158.701,257.346,158.701,257.021,158.376"/>
		<path clip-path="url(#SVGID_35_)" fill="#FFFFFF" d="M257.021,153.673L257.021,153.673c0.324-0.325,0.851-0.325,1.176,0
			l3.527,3.527c0.324,0.325,0.324,0.852,0,1.176c-0.325,0.325-0.852,0.325-1.176,0l-3.527-3.527
			C256.696,154.524,256.696,153.997,257.021,153.673"/>
	</g>
</g>
</svg>
