<svg version="1.1" xmlns="http://www.w3.org/2000/svg" xmlns:xlink="http://www.w3.org/1999/xlink" x="0px" y="0px" width="1440px" height="900px"
	 viewBox="0 0 1440 900" enable-background="new 0 0 1440 900" xml:space="preserve">
<g>
	<defs>
		<rect id="SVGID_1_" width="1440" height="900"/>
	</defs>
	<clipPath id="SVGID_2_">
		<use xlink:href="#SVGID_1_"  overflow="visible"/>
	</clipPath>
	<path clip-path="url(#SVGID_2_)" fill="#221F1F" d="M56.463,221.245c-20.477,0-36.517-16.327-36.517-37.169
		c0-20.843,16.04-37.169,36.517-37.169c20.854,0,37.821,16.674,37.821,37.169C94.284,204.57,77.317,221.245,56.463,221.245
		 M56.463,165.165c-10.238,0-18.258,8.307-18.258,18.911s8.02,18.91,18.258,18.91c10.604,0,19.562-8.66,19.562-18.91
		S67.067,165.165,56.463,165.165"/>
	
		<rect x="227.093" y="147.559" transform="matrix(0.7071 -0.7071 0.7071 0.7071 -60.9731 220.9489)" clip-path="url(#SVGID_2_)" fill="#221F1F" width="18.259" height="73.033"/>
	<path clip-path="url(#SVGID_2_)" fill="#221F1F" d="M631.606,178.682c0,20.477-16.326,36.517-37.168,36.517
		c-20.843,0-37.169-16.04-37.169-36.517c0-9.515,3.569-18.653,10.053-25.729l13.462,12.333c-3.39,3.701-5.257,8.458-5.257,13.396
		c0,10.238,8.307,18.258,18.911,18.258s18.91-8.021,18.91-18.258c0-4.939-1.867-9.695-5.258-13.395l13.46-12.335
		C628.035,160.025,631.606,169.164,631.606,178.682"/>
	<path clip-path="url(#SVGID_2_)" fill="#221F1F" d="M378.161,146.906h18.258v37.169c0,10.25,8.959,18.911,19.563,18.911
		c10.239,0,18.258-8.307,18.258-18.911h18.258c0,20.842-16.039,37.169-36.516,37.169c-20.854,0-37.821-16.674-37.821-37.169V146.906
		z"/>
	<path clip-path="url(#SVGID_2_)" fill="#221F1F" d="M762.018,221.245c-20.479,0-36.518-16.327-36.518-37.169
		c0-20.843,16.039-37.169,36.518-37.169c20.854,0,37.82,16.674,37.82,37.169C799.838,204.57,782.871,221.245,762.018,221.245
		 M762.018,165.165c-10.239,0-18.259,8.307-18.259,18.911s8.02,18.91,18.259,18.91c10.604,0,19.562-8.66,19.562-18.91
		S772.621,165.165,762.018,165.165"/>
	
		<rect x="932.647" y="147.559" transform="matrix(0.7071 -0.7071 0.7071 0.7071 145.6992 719.881)" clip-path="url(#SVGID_2_)" fill="#221F1F" width="18.258" height="73.033"/>
	<path clip-path="url(#SVGID_2_)" fill="#221F1F" d="M1337.16,178.682c0,20.477-16.326,36.517-37.169,36.517
		c-20.842,0-37.169-16.04-37.169-36.517c0-9.515,3.57-18.653,10.055-25.729l13.462,12.333c-3.391,3.701-5.258,8.458-5.258,13.396
		c0,10.238,8.307,18.258,18.91,18.258c10.604,0,18.91-8.021,18.91-18.258c0-4.939-1.866-9.695-5.257-13.395l13.459-12.335
		C1333.589,160.025,1337.16,169.164,1337.16,178.682"/>
	<path clip-path="url(#SVGID_2_)" fill="#221F1F" d="M1083.715,146.906h18.259v37.169c0,10.25,8.958,18.911,19.563,18.911
		c10.238,0,18.259-8.307,18.259-18.911h18.258c0,20.842-16.04,37.169-36.517,37.169c-20.854,0-37.821-16.674-37.821-37.169V146.906z
		"/>
</g>
<g>
	<defs>
		<rect id="SVGID_3_" width="1440" height="900"/>
	</defs>
	<clipPath id="SVGID_4_">
		<use xlink:href="#SVGID_3_"  overflow="visible"/>
	</clipPath>
	<path clip-path="url(#SVGID_4_)" fill="#221F1F" d="M505.186,343.349c-20.477,0-36.517-16.326-36.517-37.169
		c0-20.842,16.04-37.168,36.517-37.168c20.854,0,37.821,16.674,37.821,37.168C543.006,326.674,526.04,343.349,505.186,343.349
		 M505.186,287.27c-10.238,0-18.258,8.306-18.258,18.91s8.02,18.911,18.258,18.911c10.604,0,19.562-8.661,19.562-18.911
		S515.79,287.27,505.186,287.27"/>
	<rect x="139.867" y="269.663" clip-path="url(#SVGID_4_)" fill="#221F1F" width="18.258" height="73.033"/>
	<path clip-path="url(#SVGID_4_)" fill="#221F1F" d="M364.586,300.787c0,20.477-16.327,36.517-37.169,36.517
		c-20.842,0-37.168-16.04-37.168-36.517c0-9.515,3.569-18.653,10.053-25.729l13.462,12.333c-3.39,3.702-5.257,8.459-5.257,13.396
		c0,10.239,8.306,18.258,18.91,18.258s18.911-8.02,18.911-18.258c0-4.939-1.867-9.694-5.258-13.395l13.459-12.335
		C361.015,282.13,364.586,291.269,364.586,300.787"/>
	<path clip-path="url(#SVGID_4_)" fill="#221F1F" d="M689.626,261.162l12.911,12.911l-26.283,26.282
		c-7.248,7.248-7.037,19.706,0.461,27.204c7.24,7.24,18.785,7.038,26.283-0.461l12.91,12.911
		c-14.738,14.737-37.624,14.94-52.104,0.461c-14.746-14.746-14.953-38.534-0.461-53.026L689.626,261.162z"/>
	<path clip-path="url(#SVGID_4_)" fill="#221F1F" d="M1210.739,343.349c-20.478,0-36.517-16.326-36.517-37.169
		c0-20.842,16.039-37.168,36.517-37.168c20.854,0,37.821,16.674,37.821,37.168C1248.561,326.674,1231.593,343.349,1210.739,343.349
		 M1210.739,287.27c-10.238,0-18.258,8.306-18.258,18.91s8.02,18.911,18.258,18.911c10.604,0,19.562-8.661,19.562-18.911
		S1221.343,287.27,1210.739,287.27"/>
	<rect x="845.421" y="269.663" clip-path="url(#SVGID_4_)" fill="#221F1F" width="18.259" height="73.033"/>
	<path clip-path="url(#SVGID_4_)" fill="#221F1F" d="M1070.14,300.787c0,20.477-16.326,36.517-37.169,36.517
		c-20.842,0-37.168-16.04-37.168-36.517c0-9.515,3.569-18.653,10.054-25.729l13.462,12.333c-3.391,3.702-5.258,8.459-5.258,13.396
		c0,10.239,8.307,18.258,18.91,18.258c10.604,0,18.911-8.02,18.911-18.258c0-4.939-1.867-9.694-5.259-13.395l13.46-12.335
		C1066.568,282.13,1070.14,291.269,1070.14,300.787"/>
	<path clip-path="url(#SVGID_4_)" fill="#221F1F" d="M1395.18,261.162l12.911,12.911l-26.282,26.282
		c-7.248,7.248-7.037,19.706,0.461,27.204c7.239,7.24,18.784,7.038,26.282-0.461l12.91,12.911
		c-14.737,14.737-37.624,14.94-52.104,0.461c-14.745-14.746-14.953-38.534-0.461-53.026L1395.18,261.162z"/>
</g>
<g>
	<defs>
		<rect id="SVGID_5_" width="1440" height="900"/>
	</defs>
	<clipPath id="SVGID_6_">
		<use xlink:href="#SVGID_5_"  overflow="visible"/>
	</clipPath>
	<path clip-path="url(#SVGID_6_)" fill="#221F1F" d="M593.785,467.063c-20.477,0-36.517-16.325-36.517-37.168
		c0-20.842,16.04-37.168,36.517-37.168c20.854,0,37.821,16.674,37.821,37.168C631.606,450.389,614.639,467.063,593.785,467.063
		 M593.785,410.984c-10.238,0-18.258,8.306-18.258,18.91s8.02,18.911,18.258,18.911c10.604,0,19.562-8.661,19.562-18.911
		S604.389,410.984,593.785,410.984"/>
	
		<rect x="47.985" y="393.378" transform="matrix(0.7071 0.7071 -0.7071 0.7071 320.7099 85.5268)" clip-path="url(#SVGID_6_)" fill="#221F1F" width="18.259" height="73.033"/>
	<path clip-path="url(#SVGID_6_)" fill="#221F1F" d="M389.226,403.434c14.479-14.479,37.366-14.277,52.104,0.461
		c14.737,14.738,14.94,37.624,0.46,52.104c-6.728,6.729-15.713,10.664-25.302,11.084l-0.798-18.239
		c5.015-0.22,9.699-2.263,13.19-5.755c7.24-7.24,7.037-18.784-0.461-26.282s-19.043-7.701-26.282-0.461
		c-3.493,3.492-5.535,8.175-5.754,13.188l-18.24-0.794C378.559,419.151,382.496,410.164,389.226,403.434"/>
	<path clip-path="url(#SVGID_6_)" fill="#221F1F" d="M281.24,435.262l-12.911,12.911l-26.282-26.283
		c-7.248-7.248-19.706-7.037-27.204,0.461c-7.24,7.24-7.038,18.785,0.461,26.283l-12.911,12.91
		c-14.737-14.738-14.94-37.624-0.461-52.103c14.746-14.746,38.534-14.953,53.026-0.461L281.24,435.262z"/>
	<path clip-path="url(#SVGID_6_)" fill="#221F1F" d="M1299.34,467.063c-20.479,0-36.518-16.325-36.518-37.168
		c0-20.842,16.039-37.168,36.518-37.168c20.854,0,37.82,16.674,37.82,37.168C1337.16,450.389,1320.193,467.063,1299.34,467.063
		 M1299.34,410.984c-10.239,0-18.259,8.306-18.259,18.91s8.02,18.911,18.259,18.911c10.604,0,19.562-8.661,19.562-18.911
		S1309.943,410.984,1299.34,410.984"/>
	
		<rect x="753.54" y="393.378" transform="matrix(0.7071 0.7071 -0.7071 0.7071 527.3621 -413.3755)" clip-path="url(#SVGID_6_)" fill="#221F1F" width="18.259" height="73.033"/>
	<path clip-path="url(#SVGID_6_)" fill="#221F1F" d="M1094.779,403.434c14.479-14.479,37.366-14.277,52.104,0.461
		c14.738,14.738,14.94,37.624,0.461,52.104c-6.728,6.729-15.714,10.664-25.302,11.084l-0.798-18.239
		c5.014-0.22,9.698-2.263,13.189-5.755c7.24-7.24,7.037-18.784-0.461-26.282s-19.043-7.701-26.282-0.461
		c-3.492,3.492-5.535,8.175-5.754,13.188l-18.24-0.794C1084.112,419.151,1088.051,410.164,1094.779,403.434"/>
	<path clip-path="url(#SVGID_6_)" fill="#221F1F" d="M986.794,435.262l-12.91,12.911l-26.282-26.283
		c-7.248-7.248-19.706-7.037-27.205,0.461c-7.239,7.24-7.037,18.785,0.461,26.283l-12.91,12.91
		c-14.737-14.738-14.94-37.624-0.461-52.103c14.745-14.746,38.533-14.953,53.025-0.461L986.794,435.262z"/>
</g>
<g>
	<defs>
		<rect id="SVGID_7_" width="1440" height="900"/>
	</defs>
	<clipPath id="SVGID_8_">
		<use xlink:href="#SVGID_7_"  overflow="visible"/>
	</clipPath>
	<path clip-path="url(#SVGID_8_)" fill="#221F1F" d="M326.765,595.033c-20.477,0-36.517-16.326-36.517-37.168
		c0-20.843,16.04-37.169,36.517-37.169c20.854,0,37.821,16.674,37.821,37.169C364.586,578.359,347.619,595.033,326.765,595.033
		 M326.765,538.954c-10.239,0-18.258,8.307-18.258,18.911c0,10.604,8.019,18.91,18.258,18.91c10.604,0,19.562-8.66,19.562-18.91
		S337.369,538.954,326.765,538.954"/>
	
		<rect x="139.867" y="521.349" transform="matrix(0.7071 -0.7071 0.7071 0.7071 -350.8303 268.7513)" clip-path="url(#SVGID_8_)" fill="#221F1F" width="18.259" height="73.033"/>
	<path clip-path="url(#SVGID_8_)" fill="#221F1F" d="M658.154,531.404c14.479-14.479,37.365-14.277,52.103,0.461
		s14.941,37.624,0.461,52.104c-6.728,6.729-15.714,10.664-25.302,11.084l-0.798-18.24c5.015-0.22,9.698-2.262,13.19-5.754
		c7.24-7.24,7.037-18.784-0.461-26.283c-7.499-7.498-19.043-7.7-26.283-0.461c-3.492,3.493-5.535,8.176-5.753,13.189l-18.24-0.795
		C647.487,547.122,651.424,538.133,658.154,531.404"/>
	<path clip-path="url(#SVGID_8_)" fill="#221F1F" d="M543.006,595.033h-18.258v-37.168c0-10.25-8.959-18.911-19.563-18.911
		c-10.238,0-18.258,8.308-18.258,18.911h-18.258c0-20.843,16.039-37.169,36.516-37.169c20.854,0,37.821,16.674,37.821,37.169
		V595.033z"/>
	<path clip-path="url(#SVGID_8_)" fill="#221F1F" d="M1032.319,595.033c-20.478,0-36.517-16.326-36.517-37.168
		c0-20.843,16.039-37.169,36.517-37.169c20.854,0,37.82,16.674,37.82,37.169C1070.14,578.359,1053.173,595.033,1032.319,595.033
		 M1032.319,538.954c-10.239,0-18.259,8.307-18.259,18.911c0,10.604,8.02,18.91,18.259,18.91c10.604,0,19.562-8.66,19.562-18.91
		S1042.923,538.954,1032.319,538.954"/>
	
		<rect x="845.421" y="521.349" transform="matrix(0.7071 -0.7071 0.7071 0.7071 -144.1782 767.6536)" clip-path="url(#SVGID_8_)" fill="#221F1F" width="18.259" height="73.032"/>
	<path clip-path="url(#SVGID_8_)" fill="#221F1F" d="M1363.708,531.404c14.479-14.479,37.366-14.277,52.104,0.461
		c14.738,14.738,14.94,37.624,0.46,52.104c-6.727,6.729-15.713,10.664-25.301,11.084l-0.799-18.24
		c5.015-0.22,9.698-2.262,13.19-5.754c7.239-7.24,7.036-18.784-0.461-26.283c-7.498-7.498-19.044-7.7-26.282-0.461
		c-3.493,3.493-5.535,8.176-5.754,13.189l-18.24-0.795C1353.041,547.122,1356.979,538.133,1363.708,531.404"/>
	<path clip-path="url(#SVGID_8_)" fill="#221F1F" d="M1248.561,595.033h-18.259v-37.168c0-10.25-8.958-18.911-19.563-18.911
		c-10.239,0-18.258,8.308-18.258,18.911h-18.259c0-20.843,16.04-37.169,36.517-37.169c20.854,0,37.821,16.674,37.821,37.169V595.033
		z"/>
</g>
<g>
	<defs>
		<rect id="SVGID_9_" width="1440" height="900"/>
	</defs>
	<clipPath id="SVGID_10_">
		<use xlink:href="#SVGID_9_"  overflow="visible"/>
	</clipPath>
	<path clip-path="url(#SVGID_10_)" fill="#221F1F" d="M414.678,720.729c-20.477,0-36.517-16.326-36.517-37.169
		c0-20.842,16.04-37.168,36.517-37.168c20.854,0,37.821,16.674,37.821,37.168C452.499,704.055,435.532,720.729,414.678,720.729
		 M414.678,664.649c-10.238,0-18.258,8.307-18.258,18.91c0,10.604,8.02,18.911,18.258,18.911c10.604,0,19.562-8.661,19.562-18.911
		C434.24,673.311,425.282,664.649,414.678,664.649"/>
	
		<rect x="585.308" y="647.044" transform="matrix(0.7071 -0.7071 0.7071 0.7071 -309.2432 620.5409)" clip-path="url(#SVGID_10_)" fill="#221F1F" width="18.259" height="73.033"/>
	<path clip-path="url(#SVGID_10_)" fill="#221F1F" d="M30.654,709.664c-14.479-14.479-14.277-37.365,0.461-52.104
		c14.738-14.737,37.624-14.94,52.103-0.461c6.729,6.729,10.666,15.714,11.085,25.303l-18.24,0.798
		c-0.22-5.015-2.263-9.698-5.755-13.189c-7.239-7.24-18.784-7.037-26.282,0.461s-7.701,19.042-0.461,26.282
		c3.492,3.492,8.175,5.535,13.189,5.754l-0.795,18.24C46.372,720.332,37.384,716.395,30.654,709.664"/>
	<path clip-path="url(#SVGID_10_)" fill="#221F1F" d="M230.855,728.578l-12.911-12.911l26.283-26.282
		c7.248-7.248,7.037-19.706-0.461-27.204c-7.24-7.24-18.785-7.037-26.283,0.46l-12.91-12.91
		c14.738-14.737,37.624-14.94,52.103-0.461c14.746,14.745,14.953,38.534,0.461,53.025L230.855,728.578z"/>
	<path clip-path="url(#SVGID_10_)" fill="#221F1F" d="M1120.232,720.729c-20.479,0-36.518-16.326-36.518-37.169
		c0-20.842,16.039-37.168,36.518-37.168c20.854,0,37.82,16.674,37.82,37.168C1158.053,704.055,1141.086,720.729,1120.232,720.729
		 M1120.232,664.649c-10.239,0-18.259,8.307-18.259,18.91c0,10.604,8.02,18.911,18.259,18.911c10.604,0,19.562-8.661,19.562-18.911
		C1139.794,673.311,1130.836,664.649,1120.232,664.649"/>
	
		<rect x="1290.862" y="647.043" transform="matrix(0.7071 -0.7071 0.7071 0.7071 -102.575 1119.4957)" clip-path="url(#SVGID_10_)" fill="#221F1F" width="18.258" height="73.034"/>
	<path clip-path="url(#SVGID_10_)" fill="#221F1F" d="M736.208,709.664c-14.479-14.479-14.276-37.365,0.462-52.104
		c14.737-14.737,37.624-14.94,52.104-0.461c6.728,6.729,10.664,15.714,11.084,25.303l-18.24,0.798
		c-0.221-5.015-2.264-9.698-5.755-13.189c-7.239-7.24-18.784-7.037-26.282,0.461s-7.701,19.042-0.461,26.282
		c3.492,3.492,8.176,5.535,13.188,5.754l-0.794,18.24C751.926,720.332,742.938,716.395,736.208,709.664"/>
	<path clip-path="url(#SVGID_10_)" fill="#221F1F" d="M936.409,728.578l-12.911-12.911l26.282-26.282
		c7.248-7.248,7.037-19.706-0.461-27.204c-7.239-7.24-18.784-7.037-26.282,0.46l-12.91-12.91
		c14.737-14.737,37.624-14.94,52.104-0.461c14.746,14.745,14.953,38.534,0.461,53.025L936.409,728.578z"/>
</g>
</svg>
